<svg width="82" height="96" viewBox="0 0 82 96" fill="none" xmlns="http://www.w3.org/2000/svg">
<path d="M73.5655 57.3066C72.734 57.3066 72.0604 56.6384 72.0604 55.8134V42.773C72.0604 41.538 71.0476 40.5333 69.8028 40.5333H62.9045C62.0729 40.5333 61.3994 39.8651 61.3994 39.0402C61.3994 38.2152 62.0729 37.5471 62.9045 37.5471H69.8028C72.7076 37.5471 75.0706 39.8912 75.0706 42.773V55.8141C75.0706 56.6384 74.3965 57.3066 73.5655 57.3066Z" fill="#5960FE"/>
<path d="M69.8025 95.6517H6.00315C3.09834 95.6517 0.735352 93.3075 0.735352 90.4258V33.7527C0.735352 32.9278 1.40888 32.2596 2.24044 32.2596C3.072 32.2596 3.74552 32.9278 3.74552 33.7527V90.4258C3.74552 91.6607 4.75832 92.6654 6.00315 92.6654H69.8025C71.0473 92.6654 72.0601 91.6607 72.0601 90.4258V72.0978C72.0601 71.2728 72.7337 70.6047 73.5652 70.6047C74.3968 70.6047 75.0703 71.2728 75.0703 72.0978V90.4258C75.0703 93.3075 72.7073 95.6517 69.8025 95.6517Z" fill="#5960FE"/>
<path d="M62.9038 40.5327H7.56872C7.54677 40.5327 7.52545 40.5327 7.5035 40.5321C5.70241 40.5159 4.01045 39.8116 2.73614 38.5468C1.46434 37.2864 0.753816 35.6104 0.735003 33.8274C0.734376 33.8025 0.734375 33.7776 0.734375 33.7533C0.734375 30.0149 3.80036 26.974 7.56872 26.974H12.3173C13.1488 26.974 13.8224 27.6421 13.8224 28.4671C13.8224 29.292 13.1488 29.9602 12.3173 29.9602H7.56872C5.45972 29.9602 3.74455 31.6617 3.74455 33.7533V33.7564C3.74455 33.7664 3.74517 33.7764 3.74517 33.7863C3.75333 34.7867 4.15092 35.728 4.86521 36.4353C5.58138 37.1464 6.53272 37.5409 7.54426 37.5465C7.55555 37.5465 7.56746 37.5465 7.57875 37.5471H61.3994V33.7533C61.3994 31.8241 59.9457 30.2047 58.0179 29.9851C57.192 29.8911 56.5994 29.1508 56.6941 28.3315C56.7888 27.5121 57.5351 26.9242 58.361 27.0181C61.8095 27.4101 64.4102 30.3055 64.4102 33.7527V39.0396C64.4089 39.8639 63.7354 40.5327 62.9038 40.5327ZM7.60886 37.5477H7.61011C7.60948 37.5477 7.60948 37.5477 7.60886 37.5477ZM3.74392 33.7372C3.74392 33.7396 3.74392 33.7421 3.74455 33.7452C3.74455 33.7428 3.74392 33.7396 3.74392 33.7372Z" fill="#5960FE"/>
<path d="M14.5309 40.5333C14.3252 40.5333 14.1157 40.491 13.9157 40.402C13.1575 40.0642 12.8182 39.1808 13.1587 38.4286L30.0978 0.973853C30.2609 0.612395 30.5625 0.33057 30.9357 0.189346C31.3088 0.0487447 31.7227 0.0605652 32.0871 0.222319L64.4602 14.6315C65.2184 14.9693 65.5577 15.8527 65.2171 16.6049L54.7944 39.6499C54.4539 40.402 53.5634 40.7386 52.8052 40.4008C52.047 40.063 51.7077 39.1795 52.0483 38.4274L61.8545 16.7449L32.2282 3.55881L15.9049 39.6511C15.6547 40.2048 15.1059 40.5333 14.5309 40.5333Z" fill="#5960FE"/>
<path d="M47.1235 40.5333C46.9178 40.5333 46.7084 40.491 46.5083 40.402C45.7502 40.0642 45.4109 39.1808 45.7514 38.4286L52.032 24.5408C50.9672 23.76 50.1469 22.6924 49.6646 21.4351C49.1824 20.1771 49.0789 18.8396 49.3511 17.5536L39.9336 13.3623C39.1466 14.4187 38.0704 15.2318 36.8024 15.7102C35.535 16.1887 34.1861 16.2913 32.8898 16.0207L26.9855 29.0774L22.2037 39.6511C21.8638 40.4033 20.9727 40.7398 20.2145 40.402C19.4563 40.0642 19.117 39.1808 19.4576 38.4286L24.2393 27.8549L30.6943 13.5819C30.858 13.2205 31.159 12.9387 31.5321 12.7974C31.9052 12.6568 32.3191 12.6686 32.6835 12.8304C33.6549 13.2628 34.7379 13.2939 35.7326 12.9187C36.7272 12.543 37.5154 11.8058 37.9507 10.8427C38.1137 10.4812 38.4154 10.1994 38.7885 10.0582C39.1616 9.91696 39.5755 9.92941 39.9399 10.0912L51.8087 15.3737C52.1731 15.5361 52.4572 15.8347 52.5995 16.2048C52.7413 16.575 52.7294 16.9856 52.5663 17.3471C52.1305 18.3101 52.0991 19.3846 52.4779 20.3719C52.8567 21.3592 53.6004 22.1406 54.5712 22.573C54.9356 22.7347 55.2197 23.034 55.362 23.4041C55.5044 23.7743 55.4918 24.1849 55.3288 24.5464L53.2793 29.0767L48.4976 39.6505C48.2467 40.2048 47.698 40.5333 47.1235 40.5333Z" fill="#5960FE"/>
<path d="M28.7219 40.5327C27.891 40.5327 27.2174 39.8652 27.2168 39.0408C27.2162 38.0902 27.4156 37.1664 27.8107 36.2947C28.5494 34.661 29.8858 33.4105 31.5728 32.7735C33.2603 32.1364 35.0965 32.1893 36.7434 32.9228C39.1678 34.0016 40.7356 36.403 40.7369 39.0396C40.7375 39.8639 40.064 40.5333 39.2324 40.5333H39.2318C38.4008 40.5333 37.7273 39.8652 37.7267 39.0408C37.7261 37.5782 36.8562 36.2462 35.5111 35.6471C34.5974 35.2402 33.5789 35.211 32.6433 35.5644C31.7076 35.9177 30.9663 36.6114 30.5562 37.5179C30.3367 38.0019 30.2263 38.5139 30.2263 39.039C30.227 39.8639 29.5534 40.5327 28.7225 40.5333C28.7225 40.5327 28.7225 40.5327 28.7219 40.5327Z" fill="#5960FE"/>
<path d="M7.53575 40.5327C7.33005 40.5327 7.12059 40.4904 6.92054 40.4014C6.16235 40.0636 5.82308 39.1802 6.16361 38.428L22.1708 3.03434C22.3345 2.67288 22.6355 2.39106 23.0087 2.24983C23.3818 2.10923 23.7957 2.12105 24.16 2.28281L29.9847 4.87647C30.7429 5.21429 31.0822 6.09771 30.7417 6.84987C30.4011 7.60203 29.5106 7.9386 28.7524 7.60078L24.3011 5.61929L8.90976 39.6499C8.65892 40.2042 8.11019 40.5327 7.53575 40.5327Z" fill="#5960FE"/>
<path d="M79.5888 73.5908H64.4514C59.0958 73.5908 54.7393 69.2682 54.7393 63.9552C54.7393 58.6422 59.0965 54.3203 64.4514 54.3203H79.5888C80.4204 54.3203 81.0939 54.9885 81.0939 55.8134V72.0977C81.0939 72.9226 80.4198 73.5908 79.5888 73.5908ZM64.4514 57.3065C60.7558 57.3065 57.7494 60.289 57.7494 63.9552C57.7494 67.6214 60.7558 70.6046 64.4514 70.6046H78.0838V57.3065H64.4514Z" fill="#5960FE"/>
<path d="M64.2921 68.1353C61.9686 68.1353 60.0791 66.2602 60.0791 63.9558C60.0791 61.6515 61.9692 59.7764 64.2921 59.7764C66.6149 59.7764 68.5051 61.6515 68.5051 63.9558C68.5051 66.2602 66.6149 68.1353 64.2921 68.1353ZM64.2921 62.7626C63.6286 62.7626 63.0893 63.2976 63.0893 63.9558C63.0893 64.6141 63.6286 65.1491 64.2921 65.1491C64.9556 65.1491 65.4949 64.6141 65.4949 63.9558C65.4949 63.2976 64.955 62.7626 64.2921 62.7626Z" fill="#5960FE"/>
</svg>
