<svg width="32" height="32" viewBox="0 0 32 32" fill="none" xmlns="http://www.w3.org/2000/svg">
<path d="M25.8415 17.6202V5.82568C25.8415 5.0547 25.5352 4.3153 24.9901 3.77014C24.4449 3.22497 23.7055 2.9187 22.9345 2.9187H9.36859C8.59761 2.9187 7.85821 3.22497 7.31304 3.77014C6.76788 4.3153 6.46161 5.0547 6.46161 5.82568V25.2056C6.46161 25.9765 6.76788 26.7159 7.31304 27.2611C7.85821 27.8063 8.59761 28.1125 9.36859 28.1125H15.3491C15.8629 28.1125 16.3557 27.9084 16.719 27.5451L25.274 18.9901C25.6373 18.6267 25.8414 18.134 25.8415 17.6202Z" stroke="white" stroke-width="1.93799" stroke-linejoin="round"/>
<path d="M11.3066 17.4536H20.9965M11.3066 22.2986H16.3938M11.3066 12.5784H20.9965M11.3066 7.7334H20.9965" stroke="white" stroke-width="1.93799" stroke-linecap="round" stroke-linejoin="round"/>
</svg>
