<svg width="26" height="27" viewBox="0 0 26 27" fill="none" xmlns="http://www.w3.org/2000/svg">
<path d="M5.90552 6.40918L6.89088 22.1749C6.93768 23.0859 7.60034 23.7515 8.46745 23.7515H17.5328C18.4033 23.7515 19.0537 23.0859 19.1093 22.1749L20.0947 6.40918" stroke="white" stroke-width="1.57658" stroke-linecap="round" stroke-linejoin="round"/>
<path d="M4.32886 6.40918H21.6712H4.32886Z" fill="white"/>
<path d="M4.32886 6.40918H21.6712" stroke="white" stroke-width="1.57658" stroke-miterlimit="10" stroke-linecap="round"/>
<path d="M9.84678 6.40902V4.4383C9.84633 4.28289 9.8766 4.12893 9.93586 3.98526C9.99512 3.8416 10.0822 3.71107 10.1921 3.60118C10.302 3.49129 10.4325 3.40421 10.5762 3.34494C10.7198 3.28568 10.8738 3.25541 11.0292 3.25586H14.9707C15.1261 3.25541 15.28 3.28568 15.4237 3.34494C15.5674 3.40421 15.6979 3.49129 15.8078 3.60118C15.9177 3.71107 16.0047 3.8416 16.064 3.98526C16.1233 4.12893 16.1535 4.28289 16.1531 4.4383V6.40902M12.9999 9.56217V20.5982M9.45264 9.56217L9.84678 20.5982M16.5472 9.56217L16.1531 20.5982" stroke="white" stroke-width="1.57658" stroke-linecap="round" stroke-linejoin="round"/>
</svg>
