<svg width="157" height="60" viewBox="0 0 157 60" fill="none" xmlns="http://www.w3.org/2000/svg">
<path d="M5.36973 46.2C5.10306 46.2 4.86973 46.1167 4.66973 45.95C4.46973 45.7833 4.36973 45.5333 4.36973 45.2V43C4.36973 42.6 4.45306 42.2833 4.61973 42.05C4.81973 41.8167 5.11973 41.5833 5.51973 41.35L18.8697 32.2L5.51973 23.05C5.11973 22.7833 4.81973 22.5333 4.61973 22.3C4.45306 22.0667 4.36973 21.75 4.36973 21.35V19.15C4.36973 18.8167 4.46973 18.5667 4.66973 18.4C4.86973 18.2333 5.10306 18.15 5.36973 18.15C5.56973 18.15 5.78639 18.2167 6.01973 18.35C6.25306 18.45 6.43639 18.55 6.56973 18.65L22.2697 29.45C22.8031 29.8167 23.1697 30.1667 23.3697 30.5C23.6031 30.8333 23.7197 31.25 23.7197 31.75V32.6C23.7197 33.0667 23.6031 33.4833 23.3697 33.85C23.1697 34.1833 22.8031 34.5333 22.2697 34.9L6.56973 45.7C6.43639 45.8 6.25306 45.9167 6.01973 46.05C5.78639 46.15 5.56973 46.2 5.36973 46.2Z" fill="url(#paint0_linear_753_305)"/>
<path opacity="0.2" d="M70.8697 46.2C70.6031 46.2 70.3697 46.1167 70.1697 45.95C69.9697 45.7833 69.8697 45.5333 69.8697 45.2V43C69.8697 42.6 69.9531 42.2833 70.1197 42.05C70.3197 41.8167 70.6197 41.5833 71.0197 41.35L84.3697 32.2L71.0197 23.05C70.6197 22.7833 70.3197 22.5333 70.1197 22.3C69.9531 22.0667 69.8697 21.75 69.8697 21.35V19.15C69.8697 18.8167 69.9697 18.5667 70.1697 18.4C70.3697 18.2333 70.6031 18.15 70.8697 18.15C71.0697 18.15 71.2864 18.2167 71.5197 18.35C71.7531 18.45 71.9364 18.55 72.0697 18.65L87.7697 29.45C88.3031 29.8167 88.6697 30.1667 88.8697 30.5C89.1031 30.8333 89.2197 31.25 89.2197 31.75V32.6C89.2197 33.0667 89.1031 33.4833 88.8697 33.85C88.6697 34.1833 88.3031 34.5333 87.7697 34.9L72.0697 45.7C71.9364 45.8 71.7531 45.9167 71.5197 46.05C71.2864 46.15 71.0697 46.2 70.8697 46.2Z" fill="black"/>
<path opacity="0.2" d="M136.37 46.2C136.103 46.2 135.87 46.1167 135.67 45.95C135.47 45.7833 135.37 45.5333 135.37 45.2V43C135.37 42.6 135.453 42.2833 135.62 42.05C135.82 41.8167 136.12 41.5833 136.52 41.35L149.87 32.2L136.52 23.05C136.12 22.7833 135.82 22.5333 135.62 22.3C135.453 22.0667 135.37 21.75 135.37 21.35V19.15C135.37 18.8167 135.47 18.5667 135.67 18.4C135.87 18.2333 136.103 18.15 136.37 18.15C136.57 18.15 136.786 18.2167 137.02 18.35C137.253 18.45 137.436 18.55 137.57 18.65L153.27 29.45C153.803 29.8167 154.17 30.1667 154.37 30.5C154.603 30.8333 154.72 31.25 154.72 31.75V32.6C154.72 33.0667 154.603 33.4833 154.37 33.85C154.17 34.1833 153.803 34.5333 153.27 34.9L137.57 45.7C137.436 45.8 137.253 45.9167 137.02 46.05C136.786 46.15 136.57 46.2 136.37 46.2Z" fill="black"/>
<defs>
<linearGradient id="paint0_linear_753_305" x1="23.875" y1="63.925" x2="-18.7287" y2="46.8455" gradientUnits="userSpaceOnUse">
<stop stop-color="#5960FE"/>
<stop offset="1" stop-color="#8489FE"/>
</linearGradient>
</defs>
</svg>
