<svg width="32" height="32" viewBox="0 0 32 32" fill="none" xmlns="http://www.w3.org/2000/svg">
<path d="M16.2629 28.1125C23.22 28.1125 28.8599 22.4727 28.8599 15.5156C28.8599 8.55854 23.22 2.9187 16.2629 2.9187C9.30585 2.9187 3.66602 8.55854 3.66602 15.5156C3.66602 22.4727 9.30585 28.1125 16.2629 28.1125Z" stroke="white" stroke-width="1.93799" stroke-linecap="round" stroke-linejoin="round"/>
<path d="M16.2629 20.3606C18.9387 20.3606 21.1079 18.1914 21.1079 15.5156C21.1079 12.8398 18.9387 10.6707 16.2629 10.6707C13.5871 10.6707 11.418 12.8398 11.418 15.5156C11.418 18.1914 13.5871 20.3606 16.2629 20.3606Z" stroke="white" stroke-width="1.93799" stroke-linecap="round" stroke-linejoin="round"/>
<path d="M13.356 3.2821L13.8405 11.2763M18.6855 11.2763L19.17 3.2821M13.356 27.7492L13.8405 19.755M18.6855 19.755L19.17 27.7492M28.4965 12.6087L20.5023 13.0932M20.5023 17.9381L28.4965 18.4226M4.02942 12.6087L12.0236 13.0932M12.0236 17.9381L4.02942 18.4226" stroke="white" stroke-width="1.93799" stroke-linecap="round" stroke-linejoin="round"/>
</svg>
