<svg width="32" height="32" viewBox="0 0 32 32" fill="none" xmlns="http://www.w3.org/2000/svg">
<path d="M5.58789 12.851V27.1436C5.58789 27.4006 5.68998 27.6471 5.8717 27.8288C6.05342 28.0105 6.29989 28.1126 6.55688 28.1126H12.3708V19.8762C12.3708 19.4907 12.524 19.121 12.7966 18.8484C13.0691 18.5758 13.4389 18.4227 13.8243 18.4227H18.6693C19.0548 18.4227 19.4245 18.5758 19.6971 18.8484C19.9697 19.121 20.1228 19.4907 20.1228 19.8762V28.1126H25.9368C26.1938 28.1126 26.4402 28.0105 26.622 27.8288C26.8037 27.6471 26.9058 27.4006 26.9058 27.1436V12.851" stroke="white" stroke-width="1.93799" stroke-linecap="round" stroke-linejoin="round"/>
<path d="M29.8125 15.5155L16.9061 3.16087C16.6033 2.8411 15.8953 2.83747 15.5871 3.16087L2.68066 15.5155M24.9675 10.8523V3.88761H22.0605V8.0664" stroke="white" stroke-width="1.93799" stroke-linecap="round" stroke-linejoin="round"/>
</svg>
