<svg
        id="noConnection"
        xmlns="http://www.w3.org/2000/svg"
        xmlns:xlink="http://www.w3.org/1999/xlink"
        viewBox="0 0 315 245"
      >
        <defs>
          <style>
            .a {
              fill-opacity: 0.5;
              opacity: 0.85;
              isolation: isolate;
              fill: url(#a);
            }
            .b {
              fill: #3cc88c;
            }
            .c {
              fill: #DCE1ED;
            }
            .d {
              fill: #DCE1ED;
            }
            .e {
              fill: #C9CEDB;
            }
            .f {
              fill: #fff;
            }
          </style>

          <linearGradient
            id="a"
            x1="-138.48"
            y1="486.02"
            x2="-137.54"
            y2="486.02"
            gradientTransform="matrix(96, 0, 0, -5.19, 13416, 2735.93)"
            gradientUnits="userSpaceOnUse"
          >
            <stop offset="0" stop-color="#C9CEDB" stop-opacity="0" />
            <stop offset="1" stop-color="#C9CEDB" />
          </linearGradient>
        </defs>

        <title>noConnection</title>

        <g class="star" data-animator-group="true" data-animator-type="2">
          <path
            class="b"
            d="M278.54,23a1.46,1.46,0,1,1,2.92,0v3a1.46,1.46,0,0,1-2.92,0ZM272,33.46a1.46,1.46,0,1,1,0-2.92h3a1.46,1.46,0,0,1,0,2.92ZM281.46,40a1.46,1.46,0,0,1-2.92,0V37a1.46,1.46,0,1,1,2.92,0ZM288,30.54a1.46,1.46,0,0,1,0,2.92h-3a1.46,1.46,0,1,1,0-2.92Z"
          />
        </g>

        <path
          class="c circlesBottom"
          d="M273.49,180.75a1.46,1.46,0,1,1,2.89-.42,8,8,0,1,1-9-6.78,1.47,1.47,0,0,1,.42,2.9,5.07,5.07,0,1,0,5.7,4.3Z"
        />

        <path
          class="c"
          d="M158.49,27.75a1.46,1.46,0,1,1,2.89-.42,8,8,0,1,1-9-6.78,1.47,1.47,0,0,1,.42,2.9,5.07,5.07,0,1,0,5.7,4.3Z"
        />

        <path
          class="d circlesTop"
          d="M301,109c2.42-.77,6.14-3.77,7-7,.78,2.86,4.05,6.23,7,6.49-3.32,1.19-6.5,4.73-7,7.51-.34-2.83-4.73-6.59-7-7"
        />

        <path
          class="d circlesBottom"
          d="M13,166.5a6,6,0,0,0,3.5-3.5,4.77,4.77,0,0,0,3.5,3.24A5.88,5.88,0,0,0,16.5,170c-.17-1.42-2.37-3.29-3.5-3.5"
        />

        <path class="c circlesBottom" d="M6,99a3,3,0,1,1-3-3,3,3,0,0,1,3,3" />

        <path
          class="c circlesBottom"
          d="M65.54,3A1.54,1.54,0,1,0,64,4.54,1.54,1.54,0,0,0,65.54,3Zm2.92,0A4.46,4.46,0,1,1,64-1.46,4.46,4.46,0,0,1,68.46,3Z"
        />

        <path
          class="c circlesTop"
          d="M47.37,198.1a2.54,2.54,0,1,0-1.47,3.27A2.53,2.53,0,0,0,47.37,198.1Zm-7.47,2.84a5.46,5.46,0,1,1,7,3.16A5.44,5.44,0,0,1,39.9,200.94Z"
        />

        <g class="cloud">
          <path
            class="c"
            d="M232.5,119.58a28.69,28.69,0,0,1-28.68,28.69,29.13,29.13,0,0,1-5.1-.46h-85.4a18.25,18.25,0,0,1-2.43-.16,28.69,28.69,0,0,1-9.71-55.58,27.78,27.78,0,0,1,34.45-21.85A41.77,41.77,0,0,1,208.7,90.65a31.14,31.14,0,0,1,23.8,28.93Z"
          />

          <path
            class="f"
            d="M216.13,99.33a23.48,23.48,0,0,0-10-4.08L204.2,95l-.21-1.9a36.77,36.77,0,0,0-65.51-18.42L137.39,76l-1.68-.56A22.75,22.75,0,0,0,105.9,94.25l-.2,1.6-1.54.48a23.69,23.69,0,0,0,6.91,46.32,20,20,0,0,0,2.25.16h85.86a24.44,24.44,0,0,0,4.64.46,23.69,23.69,0,0,0,12.44-43.85l1.32-2.13Z"
          />

          <polygon
            class="e lightning"
            points="142 165.7 156.59 165.7 148.95 190.09 183 155.6 162.5 155.6 164.28 148 151.34 148 142 165.7"
          />
        </g>
      </svg>

      <div class="rain">
        <div class="drop slow"></div>
        <div class="drop fast"></div>
        <div class="drop"></div>
        <div class="drop faster"></div>
      </div>
      <div class="shadow"></div>
      
      <!-- dribbble -->
    <a class="dribbble" href="https://dribbble.com/danarocha" target="_blank">
      <svg
        width="30px"
        height="30px"
        viewBox="0 0 100 100"
        version="1.1"
        xmlns="http://www.w3.org/2000/svg"
        xmlns:xlink="http://www.w3.org/1999/xlink"
      >
        <g
          id="ðŸ–¥ï¸-DESKTOP"
          stroke="none"
          stroke-width="1"
          fill="none"
          fill-rule="evenodd"
        >
          <g
            id="WEB"
            transform="translate(-993.000000, -978.000000)"
            fill="#ED6D7E">
            <g
              id="dribbble-ball-mark"
              transform="translate(993.000000, 978.000000)"
            >
              <path
                d="M50,0 C22.397,0 0,22.397 0,50 C0,77.603 22.397,100 50,100 C77.5488,100 100,77.603 100,50 C100,22.397 77.5488,0 50,0 Z M83.026,23.0477 C88.9913,30.3145 92.5705,39.5879 92.679,49.6204 C91.269,49.3492 77.1692,46.4751 62.961,48.2646 C62.6356,47.5597 62.3644,46.8004 62.0391,46.0412 C61.1714,43.9805 60.1952,41.8655 59.2191,39.859 C74.9458,33.4599 82.1041,24.2408 83.026,23.0477 Z M50,7.37527 C60.846,7.37527 70.7701,11.4425 78.308,18.1128 C77.5488,19.1974 71.0954,27.82 55.9111,33.5141 C48.9154,20.6616 41.1605,10.141 39.9675,8.5141 C43.167,7.75488 46.5293,7.37527 50,7.37527 Z M31.833,11.3883 C32.9718,12.9067 40.564,23.4816 47.6681,36.0629 C27.7115,41.3774 10.0868,41.2691665 8.18872,41.2691665 C10.9544,28.0369 19.9024,17.0282 31.833,11.3883 Z M7.26681,50.0542 C7.26681,49.6204 7.26681,49.1866 7.26681,48.7527 C9.11063,48.8069 29.8265,49.0781 51.1388,42.679 C52.3861,45.0651 53.5249,47.5054 54.6095,49.9458 C54.0672,50.1085 53.4707,50.2712 52.9284,50.4338 C30.9111,57.538 19.1974,76.9523 18.2213,78.5792 C11.4425,71.0412 7.26681,61.0087 7.26681,50.0542 Z M50,92.7332 C40.1302,92.7332 31.0195,89.3709 23.8069,83.731 C24.5662,82.1584 33.243,65.4555 57.321,57.0499 C57.4295,56.9957 57.4837,56.9957 57.5922,56.9414 C63.6117,72.5054 66.0521,85.5748 66.7028,89.3167 C61.551,91.5401 55.9111,92.7332 50,92.7332 Z M73.807,85.4122 C73.3731,82.8091 71.0955,70.3362 65.5098,54.9892 C78.9046,52.8742 90.6182,56.3449 92.0824,56.833 C90.2386,68.7093 83.4056,78.9588 73.807,85.4122 Z"
                id="Shape"
              ></path>
            </g>
          </g>
        </g>
      </svg>