<svg width="60" height="60" viewBox="0 0 60 60" fill="none" xmlns="http://www.w3.org/2000/svg">
<path d="M52.5 30C52.5 17.5781 42.4219 7.5 30 7.5C17.5781 7.5 7.5 17.5781 7.5 30C7.5 42.4219 17.5781 52.5 30 52.5C42.4219 52.5 52.5 42.4219 52.5 30Z" stroke="#0BA859" stroke-width="3.75" stroke-miterlimit="10"/>
<path d="M42.797 36.6797C40.8833 34.4133 39.5321 33.4605 39.5321 27.2109C39.5321 21.4852 36.511 19.4496 34.0243 18.4605C33.8528 18.389 33.6981 18.2824 33.5702 18.1476C33.4422 18.0128 33.3439 17.8528 33.2813 17.6777C32.8466 16.2422 31.6267 15 30.0001 15C28.3735 15 27.1513 16.2422 26.7189 17.6789C26.6567 17.854 26.5586 18.014 26.4309 18.1489C26.3031 18.2837 26.1485 18.3903 25.9771 18.4617C23.488 19.4531 20.4692 21.4852 20.4692 27.2121C20.4692 33.4617 19.1169 34.4145 17.2032 36.6809C16.4099 37.6184 17.1271 39.3762 18.5146 39.3762H41.4845C42.8638 39.375 43.5868 37.6172 42.797 36.6797ZM25.8095 41.25C25.7435 41.2496 25.6783 41.2632 25.618 41.2898C25.5576 41.3163 25.5036 41.3553 25.4593 41.4042C25.4151 41.4531 25.3817 41.5108 25.3612 41.5734C25.3408 41.6361 25.3338 41.7024 25.3407 41.768C25.6044 43.9617 27.5521 45 30.0001 45C32.4224 45 34.3524 43.9277 34.6478 41.775C34.6557 41.7089 34.6496 41.6418 34.6296 41.5783C34.6097 41.5148 34.5764 41.4562 34.5321 41.4065C34.4877 41.3569 34.4333 41.3172 34.3724 41.2902C34.3115 41.2632 34.2456 41.2495 34.179 41.25H25.8095Z" fill="#0BA859"/>
</svg>
