<svg width="47" height="46" viewBox="0 0 47 46" fill="none" xmlns="http://www.w3.org/2000/svg">
<g clip-path="url(#clip0_131_908)">
<path d="M36.7016 45.6229H10.3737C9.33415 45.6229 8.49319 44.7817 8.49319 43.7424V26.8172H2.85135C2.10564 26.8172 1.42987 26.3764 1.13061 25.6933C0.82948 25.0119 0.961671 24.2167 1.46493 23.6658L22.1456 1.09903C22.5034 0.709954 23.0211 0.488323 23.5382 0.489261C24.0514 0.490386 24.5639 0.711079 24.9188 1.09903L45.6106 23.6658C46.1138 24.215 46.246 25.0119 45.9449 25.6933C45.6456 26.3766 44.9697 26.8172 44.2242 26.8172H38.5825V43.7424C38.5821 44.7817 37.741 45.6229 36.7016 45.6229ZM12.2542 41.8617H34.821V24.9365C34.821 23.897 35.6621 23.0561 36.7015 23.0561H39.9483L23.5318 5.15214L7.12459 23.0561H10.3733C11.4128 23.0561 12.2538 23.8972 12.2538 24.9365C12.2544 24.9365 12.2544 41.8617 12.2542 41.8617Z" fill="#333333"/>
</g>
<defs>
<clipPath id="clip0_131_908">
<rect width="45.1336" height="45.1336" fill="white" transform="translate(0.970459 0.489746)"/>
</clipPath>
</defs>
</svg>
