<svg width="81" height="67" viewBox="0 0 81 67" fill="none" xmlns="http://www.w3.org/2000/svg">
<path d="M43.3842 45.9863H64.8441C65.6488 45.9863 66.1853 45.4498 66.1853 44.6451V32.5739C66.1853 31.7691 65.6488 31.2327 64.8441 31.2327H43.3842C42.5794 31.2327 42.043 31.7691 42.043 32.5739V44.6451C42.0428 45.4497 42.5794 45.9863 43.3842 45.9863ZM44.7254 33.9151H63.5029V43.3037H44.7254V33.9151Z" fill="#5960FE"/>
<path d="M7.1703 28.55H17.9003C18.7051 28.55 19.2415 28.0135 19.2415 27.2088C19.2415 26.404 18.7051 25.8676 17.9003 25.8676H7.1703C6.36555 25.8676 5.8291 26.404 5.8291 27.2088C5.8291 28.0135 6.36555 28.55 7.1703 28.55Z" fill="#5960FE"/>
<path d="M23.265 28.55H33.9951C34.7998 28.55 35.3363 28.0135 35.3363 27.2088C35.3363 26.404 34.7998 25.8676 33.9951 25.8676H23.265C22.4603 25.8676 21.9238 26.404 21.9238 27.2088C21.9238 28.0135 22.4603 28.55 23.265 28.55Z" fill="#5960FE"/>
<path d="M7.1703 33.9151H24.6065C25.4112 33.9151 25.9477 33.3786 25.9477 32.5739C25.9477 31.7691 25.4112 31.2327 24.6065 31.2327H7.1703C6.36555 31.2327 5.8291 31.7691 5.8291 32.5739C5.8291 33.3786 6.36555 33.9151 7.1703 33.9151Z" fill="#5960FE"/>
<path d="M33.9948 31.2325H29.9711C29.1663 31.2325 28.6299 31.769 28.6299 32.5737C28.6299 33.3785 29.1663 33.9149 29.9711 33.9149H33.9948C34.7996 33.9149 35.336 33.3785 35.336 32.5737C35.336 31.769 34.7996 31.2325 33.9948 31.2325Z" fill="#5960FE"/>
<path d="M79.7316 14.6011C78.7928 13.394 77.5857 12.7233 76.1102 12.5892L72.8913 12.1991V8.43127V5.74888C72.8913 2.79819 70.477 0.383942 67.5263 0.383942H5.82881C2.87811 0.383784 0.463867 2.79803 0.463867 5.74888V8.43143V19.1615V48.6689C0.463867 51.0914 2.09175 53.1512 4.30733 53.8114C4.23974 56.5246 6.29264 58.88 9.04796 59.1306L71.0136 66.105C71.1477 66.105 71.416 66.105 71.5501 66.105C74.2326 66.105 76.6469 64.0932 76.915 61.5448L80.9387 18.4908C81.0728 17.1494 80.6704 15.674 79.7316 14.6011ZM3.14642 9.77262H70.2089V13.2599V17.8201H3.14642V9.77262ZM5.82881 3.06633H67.5262C69.0016 3.06633 70.2087 4.27346 70.2087 5.74888V7.09008H3.14642V5.74888C3.14642 4.27346 4.35354 3.06633 5.82881 3.06633ZM3.14642 48.6687V20.5025H70.2089V48.6687C70.2089 50.1441 69.0017 51.3512 67.5263 51.3512H5.96304H5.82896C4.35354 51.3512 3.14642 50.1441 3.14642 48.6687ZM78.2562 17.9542L74.2324 61.0082C74.0984 62.4837 72.757 63.5565 71.2818 63.4225L9.45018 56.448C8.10898 56.314 7.17 55.2409 7.03593 54.0338H67.5262C70.4768 54.0338 72.8911 51.6195 72.8911 48.6689V19.1613V14.7352L75.976 15.0035C76.6467 15.0035 77.3172 15.4059 77.7196 15.9423C78.1221 16.4788 78.3904 17.2835 78.2562 17.9542Z" fill="#5960FE"/>
</svg>
