<svg width="82" height="82" viewBox="0 0 82 82" fill="none" xmlns="http://www.w3.org/2000/svg">
<path d="M23.4274 74.1094H58.5711C61.7228 74.1094 64.2299 71.5163 63.8908 68.5285C61.7021 49.2773 48.6398 49.5957 48.6398 41C48.6398 32.4043 61.8693 32.8818 63.8893 13.4715C64.2076 10.4821 61.7228 7.89062 58.5711 7.89062H23.4274C20.2756 7.89062 17.7972 10.4821 18.1092 13.4715C20.1292 32.8818 33.3586 32.2451 33.3586 41C33.3586 49.7549 20.2963 49.2773 18.1092 68.5285C17.7685 71.5163 20.2756 74.1094 23.4274 74.1094Z" stroke="white" stroke-width="5.09375" stroke-linecap="round" stroke-linejoin="round"/>
<path d="M54.8958 69.0156H27.1715C24.6883 69.0156 23.9879 66.1504 25.7293 64.3739C29.9444 60.1016 38.4526 57.0421 38.4526 52.1426V35.9062C38.4526 32.7465 32.4037 30.335 28.6614 25.2094C28.0438 24.3641 28.1059 23.1719 29.6754 23.1719H52.3951C53.7338 23.1719 54.0235 24.3546 53.4139 25.2014C49.7257 30.335 43.5463 32.7306 43.5463 35.9062V52.1426C43.5463 57.0023 52.4142 59.624 56.3444 64.3787C57.9282 66.2952 57.3743 69.0156 54.8958 69.0156Z" fill="white"/>
</svg>
